<svg xmlns="http://www.w3.org/2000/svg" viewBox="0 0 48 46">
  <rect width="48" height="46" rx="10" fill="#0f0f0f"/>
  <rect x="2" y="40" width="44" height="4" fill="white"/>
  <rect x="0" y="18" width="8" height="3" fill="white"/>
  <rect x="1" y="24" width="6" height="3" fill="white"/>
  <rect x="40" y="18" width="8" height="3" fill="white"/>
  <rect x="41" y="24" width="6" height="3" fill="white"/>
  <rect x="14" y="4" width="3" height="3" fill="white"/>
  <rect x="22" y="2" width="4" height="3" fill="white"/>
  <rect x="31" y="4" width="3" height="3" fill="white"/>
  <rect x="9"  y="8" width="2" height="2" fill="white"/>
  <rect x="37" y="8" width="2" height="2" fill="white"/>
  <rect x="16" y="8" width="16" height="3" fill="white"/>
  <rect x="13" y="10" width="3" height="3" fill="white"/>
  <rect x="32" y="10" width="3" height="3" fill="white"/>
  <rect x="11" y="13" width="3" height="22" fill="white"/>
  <rect x="34" y="13" width="3" height="22" fill="white"/>
  <rect x="13" y="35" width="3" height="3" fill="white"/>
  <rect x="32" y="35" width="3" height="3" fill="white"/>
  <rect x="16" y="37" width="16" height="3" fill="white"/>
  <rect x="22" y="8" width="4" height="30" fill="white"/>
  <rect x="14" y="14" width="3" height="3" fill="white"/>
  <rect x="17" y="17" width="3" height="3" fill="white"/>
  <rect x="14" y="20" width="3" height="3" fill="white"/>
  <rect x="14" y="28" width="3" height="3" fill="white"/>
  <rect x="17" y="31" width="3" height="3" fill="white"/>
  <rect x="31" y="14" width="3" height="3" fill="white"/>
  <rect x="28" y="17" width="3" height="3" fill="white"/>
  <rect x="31" y="20" width="3" height="3" fill="white"/>
  <rect x="31" y="28" width="3" height="3" fill="white"/>
  <rect x="28" y="31" width="3" height="3" fill="white"/>
</svg>
